<svg width="180" height="120" viewBox="-90 -60 180 120" xmlns="http://www.w3.org/2000/svg">
  <line x1="-30" y1="0" x2="-33" y2="0" stroke="#4A5F73" stroke-width="14" stroke-linecap="round"/>
  <line x1="-30" y1="0" x2="-33" y2="0" stroke="#5EC7FF" stroke-width="10" stroke-linecap="round"/>
  <line x1="33" y1="0" x2="30" y2="0" stroke="#4A5F73" stroke-width="14" stroke-linecap="round"/>
  <line x1="33" y1="0" x2="30" y2="0" stroke="#5EC7FF" stroke-width="10" stroke-linecap="round"/>
  <circle cx="0" cy="-36" r="19" fill="#0E1622" stroke="#2ECC71" stroke-width="3"/>
  <circle cx="0" cy="-36" r="14" fill="#172534" stroke="#5EC7FF" stroke-width="1.5"/>
  <path d="M -13 -36 H 13 M 0 -49 V -23" fill="none" stroke="#5EC7FF" stroke-width="1" opacity="0.75"/>
  <circle cx="0" cy="-36" r="3" fill="#5EC7FF"/>
  <line x1="0" y1="-18" x2="0" y2="0" stroke="#2ECC71" stroke-width="3" stroke-linecap="round"/>
  <line x1="-31" y1="-17" x2="0" y2="0" stroke="#2ECC71" stroke-width="3" stroke-linecap="round"/>
  <line x1="-31" y1="17" x2="0" y2="0" stroke="#2ECC71" stroke-width="3" stroke-linecap="round"/>
  <line x1="-31" y1="-17" x2="-31" y2="17" stroke="#2ECC71" stroke-width="3" stroke-linecap="round"/>
  <line x1="31" y1="-17" x2="0" y2="0" stroke="#2ECC71" stroke-width="3" stroke-linecap="round"/>
  <line x1="31" y1="17" x2="0" y2="0" stroke="#2ECC71" stroke-width="3" stroke-linecap="round"/>
  <line x1="31" y1="-17" x2="31" y2="17" stroke="#2ECC71" stroke-width="3" stroke-linecap="round"/>
</svg>